HIERARCHY
ROOT Hips
{
	OFFSET 0.000000 103.266502 0.000000
	CHANNELS 6 Xposition Yposition Zposition Xrotation Yrotation Zrotation 
	JOINT Spine
	{
		OFFSET -0.002400 12.777504 0.315300
		CHANNELS 3 Xrotation Yrotation Zrotation
		JOINT Spine1
		{
			OFFSET -0.002067 5.816869 0.032633
			CHANNELS 3 Xrotation Yrotation Zrotation
			JOINT Spine1_split
			{
				OFFSET -0.002067 5.816869 0.032633
				CHANNELS 3 Xrotation Yrotation Zrotation
				JOINT Spine2
				{
					OFFSET -0.002067 5.816869 0.032633
					CHANNELS 3 Xrotation Yrotation Zrotation
					JOINT Neck
					{
						OFFSET -0.003700 21.199493 -0.826900
						CHANNELS 3 Xrotation Yrotation Zrotation
						JOINT Head
						{
							OFFSET 0.000000 20.442200 4.834800
							CHANNELS 3 Xrotation Yrotation Zrotation
							JOINT HeadTop_End
							{
								OFFSET 0.000000 34.668396 4.968400
								CHANNELS 3 Xrotation Yrotation Zrotation
								End Site
								{
									OFFSET 0.000000 0.000000 0.000000
								}
							}
						}
					}
					JOINT LeftShoulder
					{
						OFFSET 3.288150 8.794197 -1.372250
						CHANNELS 3 Xrotation Yrotation Zrotation
						JOINT LeftShoulder_split
						{
							OFFSET 3.288150 8.794197 -1.372250
							CHANNELS 3 Xrotation Yrotation Zrotation
							JOINT LeftArm
							{
								OFFSET 11.953299 -2.279007 -0.146200
								CHANNELS 3 Xrotation Yrotation Zrotation
								JOINT LeftForeArm
								{
									OFFSET 18.448900 0.000000 0.000000
									CHANNELS 3 Xrotation Yrotation Zrotation
									JOINT LeftHand
									{
										OFFSET 29.527798 0.000000 0.000000
										CHANNELS 3 Xrotation Yrotation Zrotation
										JOINT LeftHandThumb1
										{
											OFFSET 10.739754 -2.369614 9.225399
											CHANNELS 3 Xrotation Yrotation Zrotation
											JOINT LeftHandThumb2
											{
												OFFSET 4.926170 -2.844131 2.844125
												CHANNELS 3 Xrotation Yrotation Zrotation
												JOINT LeftHandThumb3
												{
													OFFSET 4.614891 -2.664413 2.664409
													CHANNELS 3 Xrotation Yrotation Zrotation
													JOINT LeftHandThumb4
													{
														OFFSET 4.432465 -2.559082 2.559083
														CHANNELS 3 Xrotation Yrotation Zrotation
														End Site
														{
															OFFSET 0.000000 0.000000 0.000000
														}
													}
												}
											}
										}
										JOINT LeftHandIndex1
										{
											OFFSET 26.467674 0.187653 6.405298
											CHANNELS 3 Xrotation Yrotation Zrotation
											JOINT LeftHandIndex2
											{
												OFFSET 8.792900 0.000000 0.000000
												CHANNELS 3 Xrotation Yrotation Zrotation
												JOINT LeftHandIndex3
												{
													OFFSET 10.075203 0.000000 0.000000
													CHANNELS 3 Xrotation Yrotation Zrotation
													End Site
													{
														OFFSET 0.000000 0.000000 0.000000
													}
												}
											}
										}
										JOINT LeftHandMiddle1
										{
											OFFSET 25.764404 0.000000 0.000000
											CHANNELS 3 Xrotation Yrotation Zrotation
											JOINT LeftHandMiddle2
											{
												OFFSET 9.393974 0.000000 0.000000
												CHANNELS 3 Xrotation Yrotation Zrotation
												JOINT LeftHandMiddle3
												{
													OFFSET 10.771950 0.000000 0.000000
													CHANNELS 3 Xrotation Yrotation Zrotation
													End Site
													{
														OFFSET 0.000000 0.000000 0.000000
													}
												}
											}
										}
										JOINT LeftHandRing1
										{
											OFFSET 24.660927 0.144547 -6.225808
											CHANNELS 3 Xrotation Yrotation Zrotation
											JOINT LeftHandRing2
											{
												OFFSET 9.393799 0.000000 0.000000
												CHANNELS 3 Xrotation Yrotation Zrotation
												JOINT LeftHandRing3
												{
													OFFSET 9.928497 0.000000 0.000000
													CHANNELS 3 Xrotation Yrotation Zrotation
													End Site
													{
														OFFSET 0.000000 0.000000 0.000000
													}
												}
											}
										}
										JOINT LeftHandPinky1
										{
											OFFSET 23.655350 0.125290 -12.815412
											CHANNELS 3 Xrotation Yrotation Zrotation
											JOINT LeftHandPinky2
											{
												OFFSET 8.425102 0.000000 0.000000
												CHANNELS 3 Xrotation Yrotation Zrotation
												JOINT LeftHandPinky3
												{
													OFFSET 8.147003 0.000000 0.000000
													CHANNELS 3 Xrotation Yrotation Zrotation
													End Site
													{
														OFFSET 0.000000 0.000000 0.000000
													}
												}
											}
										}
									}
								}
							}
						}
					}
					JOINT RightShoulder
					{
						OFFSET -3.249400 8.794197 -1.372250
						CHANNELS 3 Xrotation Yrotation Zrotation
						JOINT RightShoulder_split
						{
							OFFSET -3.249400 8.794197 -1.372250
							CHANNELS 3 Xrotation Yrotation Zrotation
							JOINT RightArm
							{
								OFFSET -11.953299 -2.279007 -0.146200
								CHANNELS 3 Xrotation Yrotation Zrotation
								JOINT RightForeArm
								{
									OFFSET -18.448900 0.000000 0.000000
									CHANNELS 3 Xrotation Yrotation Zrotation
									JOINT RightHand
									{
										OFFSET -29.527802 0.000000 0.000000
										CHANNELS 3 Xrotation Yrotation Zrotation
										JOINT RightHandThumb1
										{
											OFFSET -10.739754 -2.369614 9.225399
											CHANNELS 3 Xrotation Yrotation Zrotation
											JOINT RightHandThumb2
											{
												OFFSET -4.926170 -2.844131 2.844125
												CHANNELS 3 Xrotation Yrotation Zrotation
												JOINT RightHandThumb3
												{
													OFFSET -4.614891 -2.664413 2.664409
													CHANNELS 3 Xrotation Yrotation Zrotation
													JOINT RightHandThumb4
													{
														OFFSET -4.432465 -2.559082 2.559083
														CHANNELS 3 Xrotation Yrotation Zrotation
														End Site
														{
															OFFSET 0.000000 0.000000 0.000000
														}
													}
												}
											}
										}
										JOINT RightHandIndex1
										{
											OFFSET -26.467674 0.187653 6.405298
											CHANNELS 3 Xrotation Yrotation Zrotation
											JOINT RightHandIndex2
											{
												OFFSET -8.792900 0.000000 0.000000
												CHANNELS 3 Xrotation Yrotation Zrotation
												JOINT RightHandIndex3
												{
													OFFSET -10.075203 0.000000 0.000000
													CHANNELS 3 Xrotation Yrotation Zrotation
													End Site
													{
														OFFSET 0.000000 0.000000 0.000000
													}
												}
											}
										}
										JOINT RightHandMiddle1
										{
											OFFSET -25.764404 0.000000 0.000000
											CHANNELS 3 Xrotation Yrotation Zrotation
											JOINT RightHandMiddle2
											{
												OFFSET -9.393974 0.000000 0.000000
												CHANNELS 3 Xrotation Yrotation Zrotation
												JOINT RightHandMiddle3
												{
													OFFSET -10.771950 0.000000 0.000000
													CHANNELS 3 Xrotation Yrotation Zrotation
													End Site
													{
														OFFSET 0.000000 0.000000 0.000000
													}
												}
											}
										}
										JOINT RightHandRing1
										{
											OFFSET -24.660927 0.144547 -6.225808
											CHANNELS 3 Xrotation Yrotation Zrotation
											JOINT RightHandRing2
											{
												OFFSET -9.393799 0.000000 0.000000
												CHANNELS 3 Xrotation Yrotation Zrotation
												JOINT RightHandRing3
												{
													OFFSET -9.928497 0.000000 0.000000
													CHANNELS 3 Xrotation Yrotation Zrotation
													End Site
													{
														OFFSET 0.000000 0.000000 0.000000
													}
												}
											}
										}
										JOINT RightHandPinky1
										{
											OFFSET -23.655350 0.125290 -12.815412
											CHANNELS 3 Xrotation Yrotation Zrotation
											JOINT RightHandPinky2
											{
												OFFSET -8.425102 0.000000 0.000000
												CHANNELS 3 Xrotation Yrotation Zrotation
												JOINT RightHandPinky3
												{
													OFFSET -8.147003 0.000000 0.000000
													CHANNELS 3 Xrotation Yrotation Zrotation
													End Site
													{
														OFFSET 0.000000 0.000000 0.000000
													}
												}
											}
										}
									}
								}
							}
						}
					}
				}
			}
		}
	}
	JOINT LeftUpLeg
	{
		OFFSET 11.394100 -6.187798 -0.413800
		CHANNELS 3 Xrotation Yrotation Zrotation
		JOINT LeftLeg
		{
			OFFSET 0.430247 -32.302673 3.732800
			CHANNELS 3 Xrotation Yrotation Zrotation
			JOINT LeftFoot
			{
				OFFSET -0.430247 -48.264931 -6.423300
				CHANNELS 3 Xrotation Yrotation Zrotation
				JOINT LeftToeBase
				{
					OFFSET 4.230900 -16.068199 23.438400
					CHANNELS 3 Xrotation Yrotation Zrotation
					JOINT LeftToe_End
					{
						OFFSET 4.510700 0.695400 19.974600
						CHANNELS 3 Xrotation Yrotation Zrotation
						End Site
						{
							OFFSET 0.000000 0.000000 0.000000
						}
					}
				}
			}
		}
	}
	JOINT RightUpLeg
	{
		OFFSET -11.333700 -6.187798 -0.413800
		CHANNELS 3 Xrotation Yrotation Zrotation
		JOINT RightLeg
		{
			OFFSET -0.430392 -32.302628 3.733000
			CHANNELS 3 Xrotation Yrotation Zrotation
			JOINT RightFoot
			{
				OFFSET 0.430392 -48.264973 -6.423500
				CHANNELS 3 Xrotation Yrotation Zrotation
				JOINT RightToeBase
				{
					OFFSET -4.230900 -16.068199 23.438400
					CHANNELS 3 Xrotation Yrotation Zrotation
					JOINT RightToe_End
					{
						OFFSET -4.510700 0.695400 19.974600
						CHANNELS 3 Xrotation Yrotation Zrotation
						End Site
						{
							OFFSET 0.000000 0.000000 0.000000
						}
					}
				}
			}
		}
	}
}
MOTION
Frames: 4
Frame Time: 0.016667
-77.791550 20.543045 3.772406 -59.168774 9.181250 98.618506 13.670836 -0.194022 -6.027633 16.440299 0.246670 -3.275164 0.000000 0.000000 0.000000 16.425633 0.382573 -3.359045 55.837872 6.471010 -15.932352 -15.707540 9.351460 1.833019 0.000000 0.000001 -0.000000 5.814957 1.516420 -4.688133 0.000000 0.000000 0.000000 -74.915243 -6.740978 -27.974759 58.640808 -0.227355 0.365229 -133.094787 1.338641 -9.402823 40.109934 -15.297139 -0.360508 5.639807 28.097925 11.338847 1.088573 40.896301 22.734020 -0.000001 0.000001 -0.000000 6.882263 2.840061 -61.140404 8.247992 7.640045 -89.897884 -0.000001 0.000002 0.000002 -2.345505 4.688860 -62.655210 8.754146 9.897089 -87.051294 0.000001 0.000004 0.000001 -9.042444 10.045666 -60.766185 8.524084 9.508825 -66.893029 0.000001 0.000002 0.000001 -17.946899 14.754991 -51.485850 8.868435 8.667052 -84.811982 0.000001 -0.000003 -0.000002 4.350988 9.519742 -3.915174 0.000000 0.000000 0.000000 -1.908439 -4.831197 1.339515 32.754620 33.258742 -23.829335 -6.484595 12.966941 -27.297555 -1.264362 -6.049188 -2.222016 3.622091 -28.238606 -7.467056 -1.666019 -4.024801 -2.390809 -0.000002 -0.000000 -0.000002 5.510558 -12.536717 32.643735 0.964253 -4.576400 40.090413 -0.000002 -0.000001 -0.000000 2.422445 -10.452747 50.257659 1.705368 -6.329508 40.569964 -0.000000 -0.000002 0.000004 1.697862 -16.683512 49.417846 3.312914 -5.897099 49.275222 -0.000001 -0.000001 0.000000 -0.128128 -24.863963 64.179538 8.350122 -6.902193 80.012968 -0.000002 0.000000 0.000001 -42.804123 24.916061 8.630026 61.446984 -0.897087 -7.173866 -9.049714 -9.653854 -1.805545 -1.295495 -0.033282 -0.027871 0.000003 -0.000001 -0.000000 -80.507208 1.073433 -37.374307 120.535463 -1.229515 5.961028 24.170383 14.703871 26.203114 -0.001737 0.015028 -0.000100 -0.000000 0.000000 0.000001 
-79.059189 17.208961 4.323362 -58.677417 3.800309 100.842176 15.957900 -0.784111 -5.039029 15.237928 -0.553105 -2.719555 0.000000 0.000000 0.000000 15.233186 -0.442761 -2.765200 59.396110 3.808038 -15.534176 -14.123799 7.965998 -0.046234 -0.000000 0.000002 0.000001 5.850629 3.867368 -9.147231 0.000000 0.000000 0.000000 -79.175471 -4.790784 -29.369626 66.580739 -0.196845 0.415288 -130.528549 2.100601 -1.414910 40.109938 -15.297138 -0.360511 5.639808 28.097925 11.338851 1.088579 40.896294 22.734018 -0.000000 0.000002 0.000000 6.882263 2.840061 -61.140404 8.247993 7.640044 -89.897891 0.000000 0.000001 -0.000001 -2.345509 4.688862 -62.655210 8.754142 9.897089 -87.051301 0.000002 0.000002 -0.000000 -9.042450 10.045668 -60.766185 8.524084 9.508825 -66.893029 -0.000000 -0.000002 0.000001 -17.946899 14.754988 -51.485853 8.868440 8.667050 -84.811982 0.000003 0.000003 -0.000000 3.987318 5.771295 -5.369522 0.000000 0.000000 0.000000 0.856455 3.213912 0.708520 26.740056 31.874949 -18.503114 -6.515416 15.387226 -26.510758 -1.549565 -6.169139 -1.948564 3.754895 -28.218816 -7.731358 -1.572993 -4.021562 -2.475577 0.000001 0.000002 -0.000002 5.611886 -12.685523 32.943785 1.033066 -4.592718 40.333360 -0.000001 0.000003 -0.000002 2.535945 -10.495715 50.782286 1.733143 -6.345992 40.670962 -0.000003 0.000001 0.000000 1.857060 -16.770037 49.979295 3.310367 -5.941020 49.419376 0.000001 0.000002 -0.000002 0.126672 -25.012645 64.844300 8.394882 -7.019052 80.688508 -0.000002 0.000001 -0.000001 -39.446695 21.182616 6.649826 63.707749 2.028007 -7.391410 -17.452614 -8.784274 1.601935 -1.251873 -0.018567 -0.015401 0.000000 0.000002 -0.000000 -79.389939 -0.770010 -35.959051 120.994370 -7.051944 4.300001 16.052942 11.671043 22.320541 -0.001718 0.016217 -0.000130 -0.000000 0.000002 -0.000000 
-79.816673 15.401520 4.821165 -57.983259 -0.891839 102.680208 17.616048 -1.523638 -3.809699 13.624162 -1.732713 -2.465764 0.000000 0.000000 0.000000 13.638214 -1.655724 -2.445545 61.075524 1.954530 -14.888465 -12.574472 6.608047 -1.023410 -0.000000 -0.000001 -0.000002 5.241383 7.707931 -14.772683 0.000000 0.000000 0.000000 -82.451489 -2.394241 -28.832872 71.492116 -0.210149 0.553448 -123.104434 0.006948 2.277030 40.109931 -15.297143 -0.360510 5.639811 28.097925 11.338848 1.088577 40.896297 22.734023 0.000002 -0.000002 -0.000002 6.882262 2.840061 -61.140404 8.247995 7.640048 -89.897891 -0.000001 -0.000000 -0.000001 -2.345506 4.688859 -62.655210 8.754145 9.897088 -87.051301 -0.000001 0.000001 -0.000000 -9.042441 10.045666 -60.766178 8.524084 9.508827 -66.893029 0.000003 -0.000001 0.000003 -17.946896 14.754991 -51.485850 8.868438 8.667050 -84.811982 -0.000000 0.000001 0.000001 4.001935 5.115534 -8.837079 0.000000 0.000000 0.000000 0.941043 11.676196 -0.032738 16.412180 34.300158 -10.963365 -9.500791 4.579501 -16.821521 -1.829247 -6.289142 -1.679254 3.885951 -28.199312 -7.991210 -1.480414 -4.021767 -2.560455 -0.000000 0.000001 -0.000000 5.712097 -12.831499 33.221190 1.100943 -4.608017 40.554344 0.000000 0.000003 -0.000000 2.647852 -10.536386 51.279868 1.759824 -6.362481 40.753000 -0.000001 -0.000003 0.000001 2.014539 -16.852419 50.513767 3.308019 -5.984383 49.543337 0.000001 -0.000001 0.000000 0.379758 -25.154253 65.481754 8.441264 -7.134617 81.335020 -0.000001 0.000001 0.000003 -35.325936 15.984943 5.953427 64.824895 10.515507 -8.155297 -23.312716 -4.940891 -5.513982 -1.205613 -0.003093 -0.002256 0.000000 -0.000000 0.000000 -78.275908 -2.292331 -33.737873 120.624474 -13.927911 2.734580 10.981806 9.535572 14.196763 -0.001736 0.017361 -0.000088 -0.000001 0.000001 0.000000 
-80.230202 14.527779 5.092195 -57.810557 -4.897785 105.129227 17.575328 -1.657400 -4.452345 12.355799 -1.761863 -1.940310 0.000000 0.000000 0.000000 12.378811 -1.624620 -1.926832 59.987700 0.650066 -12.018804 -12.691759 2.856325 1.482937 -0.000001 -0.000001 0.000001 3.701478 9.640396 -19.253670 0.000000 0.000000 0.000000 -85.769759 -1.001399 -27.598646 69.277967 -0.255662 0.574472 -109.058498 -7.133561 4.798815 40.109931 -15.297143 -0.360511 5.639811 28.097921 11.338846 1.088573 40.896304 22.734020 -0.000001 0.000002 0.000000 6.882262 2.840059 -61.140411 8.247996 7.640047 -89.897884 0.000004 0.000000 0.000000 -2.345507 4.688862 -62.655210 8.754144 9.897090 -87.051301 0.000003 0.000001 0.000000 -9.042446 10.045667 -60.766178 8.524082 9.508825 -66.893029 0.000000 -0.000001 0.000003 -17.946897 14.754991 -51.485850 8.868436 8.667050 -84.811982 -0.000000 -0.000000 -0.000001 3.553657 17.233488 -9.962795 0.000000 0.000000 0.000000 5.185749 5.341676 -2.433863 15.662647 31.146414 -9.027874 -12.315951 0.733318 -13.862435 -2.103298 -6.408974 -1.414469 4.016381 -28.183512 -8.246988 -1.390844 -4.017062 -2.642544 0.000003 0.000000 -0.000002 5.811181 -12.974699 33.475358 1.167857 -4.622499 40.751846 0.000002 -0.000001 0.000000 2.758029 -10.575054 51.750168 1.786570 -6.378079 40.814332 0.000002 0.000003 -0.000002 2.170252 -16.931235 51.020666 3.305876 -6.027662 49.645954 -0.000002 0.000002 -0.000000 0.630544 -25.288987 66.090550 8.488882 -7.248951 81.951041 -0.000002 0.000001 0.000003 -30.708879 11.759625 3.957682 65.393092 20.227868 -8.754341 -26.626533 -0.479688 -12.357199 -1.197337 -0.000483 0.000021 -0.000000 -0.000000 0.000000 -75.578994 -1.950811 -33.022995 118.484070 -14.503813 2.396411 10.343740 7.168908 8.146923 -0.001723 0.018277 -0.000185 -0.000001 -0.000002 0.000000 
